<svg width="32" height="32" viewBox="0 0 100 100" fill="none" xmlns="http://www.w3.org/2000/svg">
  <defs>
    <linearGradient id="brandGradient" x1="0%" y1="0%" x2="100%" y2="100%">
      <stop offset="0%" stop-color="#ec4899" />
      <stop offset="100%" stop-color="#9333ea" />
    </linearGradient>
  </defs>
  
  <!-- Baby Face Outline -->
  <path d="M50 85C70 85 86 69 86 49C86 29 70 13 50 13C30 13 14 29 14 49C14 69 30 85 50 85Z" stroke="url(#brandGradient)" stroke-width="6" stroke-linecap="round" stroke-linejoin="round"/>
  
  <!-- Left Ear -->
  <path d="M14 40C10 40 7 44 7 49C7 54 10 58 14 58" stroke="url(#brandGradient)" stroke-width="6" stroke-linecap="round" stroke-linejoin="round"/>
  
  <!-- Right Ear -->
  <path d="M86 40C90 40 93 44 93 49C93 54 90 58 86 58" stroke="url(#brandGradient)" stroke-width="6" stroke-linecap="round" stroke-linejoin="round"/>
  
  <!-- Eyes -->
  <circle cx="38" cy="45" r="4" fill="url(#brandGradient)"/>
  <circle cx="62" cy="45" r="4" fill="url(#brandGradient)"/>
  
  <!-- Smile -->
  <path d="M35 62C40 68 60 68 65 62" stroke="url(#brandGradient)" stroke-width="5" stroke-linecap="round"/>
  
  <!-- Hair Swirl -->
  <path d="M50 13C50 5 60 5 60 10C60 15 50 15 50 20" stroke="url(#brandGradient)" stroke-width="6" stroke-linecap="round"/>
</svg>
